<svg width="24" height="24" viewBox="0 0 24 24" fill="none" xmlns="http://www.w3.org/2000/svg">
<path d="M7.95 23.191C7.50484 23.191 7.13323 23.037 6.83516 22.729C6.53645 22.4203 6.3871 22.036 6.3871 21.576V15H7.35484V19H17.0323V5.5H7.35484V9H6.3871V3.615C6.3871 3.155 6.53645 2.771 6.83516 2.463C7.13323 2.15433 7.50484 2 7.95 2H16.4371C16.8823 2 17.2539 2.15433 17.5519 2.463C17.8506 2.771 18 3.155 18 3.615V21.577C18 22.037 17.851 22.421 17.5529 22.729C17.2542 23.0377 16.8823 23.192 16.4371 23.192L7.95 23.191ZM7.35484 20V21.576C7.35484 21.7293 7.41677 21.8703 7.54065 21.999C7.66516 22.127 7.80161 22.191 7.95 22.191L16.4371 22.192C16.5855 22.192 16.7219 22.128 16.8465 22C16.9703 21.8713 17.0323 21.7303 17.0323 21.577V20H7.35484ZM11.5935 12.5H3.48387C3.34645 12.5 3.23129 12.4523 3.13839 12.357C3.04613 12.261 3 12.142 3 12C3 11.858 3.04613 11.739 3.13839 11.643C3.23129 11.5477 3.34645 11.5 3.48387 11.5H11.5935L9.90968 9.754C9.81935 9.66067 9.77097 9.547 9.76452 9.413C9.75806 9.279 9.80839 9.15667 9.91548 9.046C10.0187 8.93933 10.1329 8.886 10.2581 8.886C10.3832 8.886 10.4974 8.93933 10.6006 9.046L12.9116 11.435C13.0684 11.5963 13.1468 11.7847 13.1468 12C13.1468 12.2153 13.0684 12.4037 12.9116 12.565L10.6006 14.954C10.5103 15.0473 10.4003 15.0983 10.2706 15.107C10.141 15.1157 10.0226 15.0647 9.91548 14.954C9.81226 14.8473 9.76 14.7303 9.75871 14.603C9.75677 14.4757 9.8071 14.3567 9.90968 14.246L11.5935 12.5ZM7.35484 4.5H17.0323V3.615C17.0323 3.46167 16.9703 3.32067 16.8465 3.192C16.7219 3.064 16.5855 3 16.4371 3H7.95C7.80161 3 7.66516 3.064 7.54065 3.192C7.41677 3.32067 7.35484 3.46167 7.35484 3.615V4.5Z" fill="white"/>
<path d="M11 4H13" stroke="white" stroke-width="0.5" stroke-linecap="round"/>
<circle cx="12" cy="21" r="0.75" stroke="white" stroke-width="0.5"/>
</svg>
